<svg xmlns="http://www.w3.org/2000/svg" xml:space="preserve" width="1250" height="1250"><path fill="#03C75B" d="M624.397 1118.039c-5.697-1.175-11.932-1.254-16.987-3.736-13.768-6.762-27.098-14.43-40.485-21.947-11.782-6.615-23.404-13.516-35.103-20.28-17.496-10.116-35.024-20.178-52.487-30.352-8.744-5.094-17.342-10.436-26.061-15.572a2511.129 2511.129 0 0 0-27.083-15.699c-9.447-5.407-19.005-10.625-28.403-16.116-16.847-9.841-33.558-19.915-50.433-29.707-7.024-4.076-14.42-7.509-21.472-11.54-11.227-6.416-22.297-13.107-33.455-19.646-5.014-2.938-9.934-6.092-15.158-8.607-7.37-3.547-12.574-9.355-17.296-15.643-4.517-6.015-5.799-13.34-6.245-20.57-.733-11.884-.96-23.81-1.047-35.72-.071-9.642.375-19.289.821-29.673.25-49.837.299-98.935.266-148.033-.007-10.295-.312-20.59-.48-30.885-.012-6.141-.057-12.282-.028-18.423.04-8.348.138-16.696.694-25.308 4.814 2.188 9.17 4.596 13.47 7.1 14.207 8.272 28.362 16.633 42.597 24.856 10.646 6.15 21.444 12.037 32.067 18.226 11.631 6.776 23.068 13.886 34.715 20.636 29.305 16.983 58.672 33.857 88.03 50.75 20.114 11.576 40.267 23.083 60.375 34.67 18.715 10.784 37.376 21.664 56.095 32.442 13.398 7.715 26.492 16.296 42.763 16.35.224 1.083.565 1.86.816 3.102-.128 1.461-.202 2.458-.202 3.456-.005 96.507-.006 193.015.009 289.523 0 1.49.193 2.98.19 4.925-.232 4.11-.358 7.765-.483 11.42z"/><path fill="#FFBB01" d="M1125.628 799.297c.001 35.99.203 71.482-.19 106.967-.065 5.943 1.764 10.008 6.045 13.31 8.32 6.417 10.573 15.445 11.136 25.188 1.188 20.566-9.619 34.084-26.857 42.7-10.81 5.403-22.072 4.36-33.484-.73-13.351-5.954-21.486-15.899-24.436-29.454-2.994-13.76.03-26.895 10.57-37.071 3.932-3.797 5.315-7.564 5.285-12.96-.232-42.153-.212-84.308-.107-126.462.044-17.64.73-35.28.69-52.92-.086-38.891-.351-77.783-.755-116.673-.121-11.62 8.345-24.142 21.148-26.956 14.572-3.204 31.134 8.398 31.065 24.615-.269 63.314-.11 126.63-.11 190.446z"/><path fill="#2CE57E" d="M51.484 476.413c-2.982-9.64.756-22.664 11.435-27.554 10.666-4.883 20.256-12.08 30.462-18.015 11.447-6.657 23.095-12.97 34.584-19.557 12.147-6.966 24.175-14.138 36.317-21.111 15.713-9.024 31.528-17.867 47.211-26.94 5.35-3.096 10.386-6.729 15.658-9.965 2.577-1.581 5.44-2.69 8.047-4.23 16.408-9.684 32.707-19.555 49.191-29.108 10-5.794 20.331-11.013 30.39-16.706 7.852-4.444 15.45-9.335 23.276-13.824 14.623-8.387 29.418-16.477 43.975-24.976 10.51-6.136 20.622-12.956 31.145-19.068 13.042-7.575 26.381-14.635 39.489-22.1 14.995-8.54 29.916-17.213 44.797-25.953 11.829-6.948 23.483-14.195 35.339-21.097 7.688-4.476 15.713-8.374 23.38-12.886 9.446-5.56 18.426-11.954 28.068-17.129 10.015-5.374 19.78-12.316 31.165-13.736 14.77-1.842 29.057.628 41.93 9.515 8.354 5.767 17.69 10.098 26.474 15.262 8.022 4.717 15.81 9.836 23.857 14.507 7.268 4.219 14.825 7.939 22.102 12.143 3.544 2.048 6.592 4.948 10.119 7.032 11.054 6.534 22.172 12.965 33.374 19.242 10.38 5.815 21.064 11.102 31.315 17.132 10.733 6.314 20.991 13.434 31.683 19.823 7.787 4.654 15.987 8.612 23.915 13.038 4.381 2.446 8.528 5.31 12.88 7.813 4.297 2.471 8.82 4.556 13.065 7.11 8.678 5.217 17.11 10.854 25.878 15.909 8.4 4.84 17.226 8.938 25.635 13.762 13.11 7.52 26.015 15.397 39.029 23.086 8.15 4.815 16.35 9.544 24.508 14.347 8.56 5.04 16.991 10.304 25.669 15.128 7.699 4.28 15.725 7.966 23.48 12.15 5.7 3.073 11.179 6.552 16.782 9.806 10.895 6.325 21.896 12.472 32.691 18.963 13.364 8.035 26.453 16.532 39.875 24.468 8.46 5.003 17.327 9.316 25.985 13.989 6.455 3.484 13.278 6.475 19.192 10.723 7.006 5.032 14.588 10.286 14.655 20.418.018 2.858-.927 5.723-1.847 8.361-.35-1.852.04-3.563-.344-5.077-.201-.79-1.766-1.234-2.984-2.027-1.827-1.908-3.096-4.089-4.988-5.264-14.793-9.19-29.594-18.377-44.62-27.176-10.876-6.37-22.216-11.943-33.144-18.228-19.55-11.244-38.921-22.801-58.42-34.135-7.447-4.329-15.142-8.235-22.536-12.649-5.666-3.383-10.855-7.576-16.576-10.853-11.64-6.666-23.596-12.781-35.24-19.443-17.386-9.948-34.59-20.214-51.919-30.266-19.485-11.304-39.065-22.444-58.523-33.793-23.158-13.507-46.202-27.21-69.354-40.727-12.144-7.09-24.418-13.957-36.625-20.94-11.248-6.435-22.536-12.802-33.71-19.363-10.972-6.44-21.748-13.214-32.745-19.61-11.19-6.509-22.69-12.49-33.78-19.16-9.447-5.682-18.81-11.497-30.053-12.472-5.885-.51-12.11-.922-17.75.426-9.16 2.191-17.729 6.106-25.923 11.192-16.633 10.325-33.831 19.74-50.778 29.561-15.496 8.98-30.94 18.05-46.461 26.984-8.045 4.63-16.28 8.93-24.303 13.594-11.84 6.884-23.511 14.058-35.358 20.929-13.627 7.903-27.432 15.5-41.04 23.434-12.453 7.259-24.672 14.916-37.13 22.165-14.33 8.34-28.83 16.392-43.221 24.628-14.664 8.392-29.284 16.86-43.927 25.287-17.08 9.828-34.228 19.535-51.226 29.5-18.04 10.576-35.894 21.471-53.915 32.08-13.88 8.172-27.86 16.174-41.86 24.138-7.015 3.991-14.237 7.62-21.252 11.613-9.062 5.159-18.143 10.306-26.958 15.868-5.699 3.595-10.935 7.924-16.753 11.98-1.17 2.715-1.964 5.374-2.759 8.032z"/><path fill="#0167D7" d="M624.184 805.306c-16.388.252-29.482-8.33-42.88-16.044-18.72-10.778-37.38-21.658-56.095-32.443-20.108-11.586-40.261-23.093-60.376-34.668-29.357-16.894-58.724-33.768-88.03-50.751-11.646-6.75-23.083-13.86-34.714-20.636-10.623-6.19-21.421-12.077-32.067-18.226-14.235-8.223-28.39-16.584-42.596-24.856-4.3-2.504-8.657-4.912-13.32-7.467-.334-.103-.374-.333-.09-.683 2.883-2.15 5.48-3.951 8.224-5.763.145-.011.351-.222.64-.242.703-.379 1.116-.736 1.653-1.111.124-.017.286-.208.48-.066.196.142.59.426.615.79-.1 5.579 4.86 4.023 7.342 5.578 8.966 5.618 18.282 10.675 27.434 15.998 15.49 9.01 30.98 18.018 46.424 27.107 15.664 9.218 31.216 18.625 46.917 27.776 14.725 8.582 29.628 16.857 44.364 25.418 11.744 6.824 23.256 14.052 35.061 20.766 8.273 4.704 16.984 8.635 25.29 13.286 10.817 6.058 21.434 12.476 32.124 18.76 22.035 12.954 43.959 26.1 66.14 38.8 9.34 5.348 19.608 8.703 30.553 7.363 9.87-1.21 19.287-3.7 28.124-9.144 14.719-9.067 30.25-16.803 45.262-25.406 12.338-7.07 24.399-14.62 36.622-21.892 11.417-6.79 22.822-13.607 34.35-20.206 13.062-7.479 26.356-14.555 39.368-22.118 19.929-11.584 39.673-23.486 59.551-35.159 15.568-9.142 31.195-18.186 46.844-27.19 16.234-9.34 32.512-18.604 48.8-27.85 5.79-3.287 11.666-6.423 17.518-9.636-2.809-2.435-5.467-4.739-7.766-7.02 4.434 2.071 8.507 4.122 12.745 6.459 1.996 1.695 3.827 3.104 5.482 4.725-.922 1.012-1.669 1.811-2.765 2.724a9149.764 9149.764 0 0 0-42.697 24.575c-22.757 13.166-45.48 26.39-68.265 39.506-23.367 13.451-46.829 26.737-70.178 40.22-19.172 11.07-38.214 22.366-57.359 33.484-26.626 15.464-53.263 30.913-79.965 46.245-8.64 4.962-17.5 9.539-26.46 14.36-.455.208-.665.395-1.054.713-.221.083-.67.23-1.024.234-1.934.8-3.512 1.595-5.483 2.408-2.676.417-4.96.815-7.486 1.114-1.116.015-1.99.13-3.17.251-.714.024-1.121.043-1.853.016a51.622 51.622 0 0 0-2.234-.1z"/><path fill="#2E94D9" d="M991.761 602.166c.747-.8 1.494-1.6 2.675-2.613.722-.05 1.01.114 1.265.78-.074 1.67-.15 2.835-.15 4 .004 93.832.01 187.664.038 281.496 0 1.821.255 3.643.391 5.465-2.193 13.275-8.482 23.92-20.2 30.93-19.246 11.513-38.476 23.055-57.857 34.336-13.534 7.877-27.385 15.209-40.943 23.044-6.727 3.887-12.99 8.572-19.688 12.512-7.35 4.322-15.034 8.067-22.438 12.3-14.144 8.089-28.164 16.392-42.287 24.518-14.718 8.468-29.512 16.804-44.243 25.25-14.926 8.556-29.84 17.135-44.712 25.784-9.195 5.348-18.244 10.947-27.464 16.25-10.463 6.016-20.777 12.4-31.681 17.499-5.808 2.715-12.726 3.057-19.606 4.396-.339-3.73-.213-7.385.406-11.47 16.515-.804 28.752-10.557 41.888-17.687 17.068-9.265 33.483-19.726 50.273-29.511 13.778-8.03 27.769-15.694 41.522-23.764 10.494-6.158 20.638-12.915 31.169-19.007 10.535-6.094 21.443-11.54 32.026-17.554 10.528-5.984 20.786-12.443 31.288-18.474 12.083-6.938 24.357-13.544 36.452-20.463 12.895-7.376 25.645-15.004 38.52-22.413 7.612-4.38 15.417-8.428 23.003-12.849 7.885-4.596 15.97-8.972 23.325-14.326 10.707-7.794 19.06-17.013 19.022-31.868-.227-89.323-.09-178.647-.184-267.97-.003-2.864-1.18-5.727-1.81-8.59z"/><path fill="#03C75B" d="M262.094 593.78c-2.597 1.8-5.195 3.602-8.062 5.637-8.793-4.487-17.328-9.19-25.839-13.935-10.487-5.847-21.001-11.647-31.413-17.624-6.07-3.484-11.9-7.383-17.948-10.905-10.787-6.28-21.716-12.316-32.478-18.637-10.441-6.134-20.676-12.62-31.133-18.726-9.527-5.56-19.255-10.774-28.85-16.22-8.98-5.098-18.078-10.024-26.753-15.603-3.104-1.996-5.123-5.679-7.538-9.105-.104-1.108-.306-1.703-.509-2.298 0 0-.024.06-.055.055.763-2.664 1.557-5.323 2.73-7.667 1.341 1.717 1.993 3.622 3.317 4.444 14.522 9.02 29.125 17.91 43.757 26.751 8.944 5.405 17.916 10.77 26.983 15.965 12.243 7.014 24.651 13.74 36.875 20.785 12.635 7.283 25.128 14.811 37.692 22.215 19.737 11.63 39.482 23.246 59.224 34.868zM995.735 599.832a4.686 4.686 0 0 0-1.124-.492c-2.09-1.406-3.92-2.815-5.837-4.87 2.3-2.846 4.403-5.52 7.13-7.152 6.386-3.822 13.164-6.983 19.613-10.705 12.044-6.951 23.913-14.205 35.953-21.162 16.02-9.257 32.15-18.324 48.205-27.522 11.155-6.391 22.252-12.884 33.394-19.299 15.974-9.196 32.108-18.127 47.865-27.68 5.057-3.065 9.138-7.738 13.666-11.676.949.6 2.514 1.043 2.715 1.834.385 1.514-.006 3.225-.01 5.335-2.569 9.694-10.626 13.24-17.904 17.498-17.173 10.046-34.406 19.988-51.648 29.914-7.736 4.453-15.553 8.765-23.933 13.324-.768.501-.937.82-1.105 1.138 0 0-.002.093-.352-.035-.79.261-1.227.652-1.665 1.042 0 0-.011.075-.403-.041-1.791.939-3.19 1.994-4.588 3.049 0 0-.009.08-.353-.048-.782.263-1.22.654-1.656 1.044 0 0-.01.071-.366.034-.627.27-.899.576-1.17.883 0 0-.067.121-.442.122-.585.311-.796.622-1.007.932 0 0-.005.108-.36-.013-.792.267-1.228.655-1.665 1.042 0 0-.005.06-.38-.043-1.118.612-1.86 1.326-2.602 2.04 0 0-.009.084-.355-.04-.78.263-1.216.65-1.651 1.038 0 0-.008.077-.354-.037-.794.274-1.242.663-1.69 1.052 0 0-.03-.035-.262.04-.528.235-.773.45-.968.723-15.833 9.43-31.595 18.98-47.525 28.244-8.995 5.232-18.311 9.91-27.384 15.013-2.805 1.578-5.284 3.737-8.472 5.55-.81-.078-1.06-.077-1.31-.076z"/><path fill="#2AA8FF" d="M995.701 600.334c.284-.503.534-.504 1.068-.262.167 19.027-.037 37.81-.053 56.593-.064 78.036-.072 156.071-.418 234.368-.454-1.561-.708-3.383-.709-5.204-.028-93.832-.034-187.664-.037-281.496 0-1.165.075-2.33.15-4zM252.979 644.591c.478 10.017.783 20.312.79 30.607.033 49.098-.016 98.196-.175 147.752-.452-.394-1.037-1.247-1.037-2.1.007-58.66.061-117.32.422-176.259z"/><path fill="#2CE57E" d="M1096.058 542.357c1.047-1.08 2.446-2.135 4.199-3.077-1.047 1.11-2.448 2.106-4.2 3.077zM1086.036 548.349c.412-.738 1.154-1.453 2.241-2.064-.407.764-1.159 1.425-2.241 2.064zM1101.01 539.345c.126-.411.564-.802 1.306-1.06-.128.448-.56.765-1.305 1.06zM51.582 476.73c.192.229.394.824.387 1.622-.265-.282-.321-.769-.387-1.621zM1094.011 543.346c.124-.408.56-.8 1.302-1.063-.126.445-.557.763-1.302 1.063zM1088.998 546.339c.127-.398.563-.786 1.301-1.052-.13.436-.56.749-1.301 1.052zM1084.013 549.34c.122-.405.557-.792 1.296-1.056-.125.44-.553.756-1.296 1.056zM1081.975 550.345c.129-.396.577-.785 1.332-1.06-.133.432-.573.749-1.332 1.06zM1102.988 538.281c-.105-.283.064-.601.53-.938.113.289-.072.596-.53.938zM1092.498 544.287c-.065-.349.207-.655.799-.927.058.346-.202.657-.8.927zM1090.994 545.26c-.07-.271.14-.582.66-.912.078.278-.15.576-.66.912zM1080.704 551.138c-.083-.31.162-.525.696-.738.02.222-.199.498-.696.738z"/><path fill="#2AA8FF" d="M991.412 602.28c.98 2.75 2.156 5.613 2.16 8.477.093 89.323-.044 178.647.183 267.97.037 14.855-8.315 24.074-19.022 31.868-7.356 5.354-15.44 9.73-23.325 14.326-7.586 4.421-15.39 8.469-23.002 12.849-12.876 7.41-25.626 15.037-38.521 22.413-12.095 6.919-24.369 13.525-36.452 20.463-10.502 6.031-20.76 12.49-31.288 18.474-10.583 6.015-21.491 11.46-32.026 17.554-10.53 6.092-20.675 12.849-31.17 19.007-13.752 8.07-27.743 15.734-41.52 23.764-16.79 9.785-33.206 20.246-50.274 29.51-13.136 7.131-25.373 16.884-41.782 17.233-.49-1.515-.683-3.005-.683-4.495-.015-96.508-.014-193.016-.009-289.523 0-.998.074-1.995.472-3.562.768-1.433 1.179-2.295 1.59-3.157.407-.02.814-.038 1.766.105 1.42.001 2.298-.158 3.175-.318 2.284-.399 4.567-.797 7.62-1.163 2.333-.8 3.897-1.631 5.46-2.463 0 0 .449-.147.864-.31.661-.307.876-.485 1.06-.701 8.76-4.753 17.62-9.33 26.26-14.292 26.702-15.332 53.339-30.78 79.965-46.245 19.145-11.118 38.187-22.414 57.36-33.485 23.348-13.482 46.81-26.768 70.177-40.219 22.785-13.116 45.508-26.34 68.265-39.506a9149.764 9149.764 0 0 1 42.697-24.575z"/><path fill="#2E94D9" d="M626.418 805.404c-.086.909-.497 1.77-1.176 2.74-.61-.671-.951-1.45-1.175-2.533.754-.288 1.39-.27 2.351-.207z"/><path fill="#03E166" d="M1194.33 469.081c-4.258 4.13-8.34 8.804-13.396 11.87-15.757 9.552-31.89 18.483-47.865 27.68-11.142 6.414-22.239 12.907-33.394 19.298-16.055 9.198-32.184 18.265-48.205 27.522-12.04 6.957-23.909 14.21-35.953 21.162-6.449 3.722-13.227 6.883-19.613 10.705-2.727 1.632-4.83 4.306-7.296 6.866-4.151-1.691-8.224-3.742-12.658-5.836-.36-.043-.392-.016-.543-.287-1.027-.723-1.905-1.175-2.798-1.698-.016-.073-.163-.05-.297-.35-2.94-2.028-5.68-3.876-8.566-5.459-8.657-4.747-17.37-9.39-26.254-14.212-.191-.14-.655-.234-.783-.545-1.727-1.13-3.325-1.95-4.915-2.702.008.067.048-.062-.09-.362-4.083-2.432-8.028-4.565-11.96-6.65.014.046.105.01-.026-.3-4.09-2.518-8.047-4.727-12.162-7.088-.415-.314-.696-.38-1.177-.64-1.996-1.172-3.815-2.057-5.684-2.928-.05.014.054.028-.14-.245-8.44-4.908-16.686-9.544-25.166-14.35-.605-.26-.976-.35-1.493-.75-1.868-1.35-3.59-2.39-5.3-3.458.01-.028-.038.007-.183-.3-5.35-3.173-10.554-6.038-15.855-8.99-.096-.09-.346-.012-.563-.29-7.247-4.254-14.278-8.23-21.493-12.35-.184-.144-.64-.248-.787-.555-4.114-2.564-8.08-4.82-12.278-7.261-.601-.305-.972-.426-1.513-.853-3.178-1.768-6.186-3.23-9.18-4.64.014.05.114.013.009-.272-.783-.69-1.46-1.094-2.136-1.511.001-.013-.024-.008-.202-.294-5.366-3.078-10.554-5.868-15.887-8.764-.146-.105-.504-.129-.683-.425-2.538-1.628-4.897-2.96-7.29-4.384-.035-.091-.23-.11-.391-.388-2.888-1.545-5.615-2.812-8.316-4.03.025.05.04-.06-.124-.337-3.79-2.298-7.415-4.318-11.196-6.45-.155-.112-.537-.143-.696-.444-15.488-9.269-30.816-18.236-46.386-27.343-.425-.171-.608-.203-.985-.505-4.069-2.348-7.944-4.424-12.008-6.67-.516-.216-.843-.263-1.363-.605-3.004-2.04-5.762-3.88-8.638-5.511-15.283-8.672-30.31-17.868-46.024-25.677-7.396-3.675-16.07-5.227-25.057-3.053-.848.054-1.328.15-2.19.146-2.758.547-5.136 1.196-7.919 1.815-1.18.18-1.956.392-3.057.525-2.947 1.275-5.569 2.63-8.483 4-.607.238-.92.462-1.424.725-.438.181-.57.394-.624.674-.035-.005-.04.064-.39.083-2.446 1.332-4.543 2.645-6.95 4.007-.765.454-1.22.858-1.89 1.28-.497.142-.671.356-1.005.738-.427.181-.583.287-1.082.356-2.763 1.49-5.18 3.014-7.89 4.67-.837.46-1.384.789-2.254 1.114-1.61.807-2.896 1.617-4.452 2.44-.558.217-.848.422-1.447.62-1.394.88-2.478 1.768-3.92 2.709-37.514 21.5-74.67 42.947-112.11 64.37-.792.476-1.301.977-1.777 1.512.033.034.018-.06-.343-.044-8.824 4.988-17.287 9.958-25.67 14.974.079.046-.084-.058-.404.007-1.647 1.123-2.975 2.182-4.6 3.264-.483.09-.67.156-1.2.172-2.398 1.23-4.454 2.51-6.833 3.837-1.163.717-2.003 1.386-3.149 2.053-1.057.637-1.807 1.276-2.593 1.896-.036-.018-.07.054-.365.06-.617.227-.937.446-1.554.662-.94.433-1.585.87-2.574 1.34-3.725 2.035-7.105 4.036-10.806 6.031-.815.364-1.308.733-2.013 1.145-.486.184-.657.406-.959.757-.557.172-.782.393-1.196.765-.688.443-1.092.83-1.804 1.274-.822.4-1.336.743-2.202 1.097-3.853 2.242-7.355 4.473-11.173 6.726-.697.2-1.077.377-1.792.524-4.619 2.714-8.902 5.458-13.518 8.211-1.282.547-2.232 1.084-3.497 1.618-1.502.867-2.69 1.738-4.097 2.674-.219.065-.56.367-.896.362-1.978 1.116-3.621 2.236-5.536 3.377-.56.232-.849.444-1.462.638-1.704.905-3.084 1.828-4.78 2.801-.841.397-1.367.745-2.232 1.095-2.592 1.502-4.844 3.002-7.386 4.517-.625.197-.96.379-1.632.564-3.63 2.118-6.923 4.232-10.347 6.31-.13-.037-.33.146-.688.179-2.487 1.392-4.615 2.75-6.975 4.187-.231.078-.591.408-.927.446-3.76 2.238-7.184 4.438-10.88 6.667-.436.106-.6.184-1.07.242-.898.489-1.491.997-2.28 1.53-.196.026-.51.265-.841.276-1.62.848-2.908 1.686-4.44 2.523-.595.306-.95.614-1.622 1.038-.613.451-.906.786-1.272 1.012-.071-.11-.303.013-.669.064-3.124 1.758-5.881 3.465-8.636 5.19.002.018-.024-.01-.36-.021-1.401.693-2.468 1.398-3.562 2.085-.028-.018-.038.048-.38.05-1.203.336-2.064.672-3.152 1.047a9.44 9.44 0 0 0-1.32.78s-.163.19-.555.25c-.819.404-1.246.747-1.674 1.09 0 0-.206.21-.351.22-19.888-11.61-39.633-23.226-59.37-34.856-12.564-7.404-25.057-14.932-37.692-22.215-12.224-7.046-24.632-13.771-36.875-20.785-9.067-5.194-18.039-10.56-26.983-15.965-14.632-8.842-29.235-17.732-43.757-26.75-1.324-.823-1.976-2.728-2.942-4.501 5.44-4.371 10.676-8.7 16.375-12.295 8.815-5.562 17.896-10.71 26.958-15.868 7.015-3.994 14.237-7.622 21.253-11.613 14-7.964 27.98-15.966 41.86-24.137 18.02-10.61 35.873-21.505 53.914-32.08 16.998-9.966 34.147-19.673 51.226-29.501 14.643-8.427 29.263-16.895 43.927-25.287 14.392-8.236 28.89-16.288 43.222-24.628 12.457-7.25 24.676-14.906 37.128-22.165 13.61-7.933 27.414-15.531 41.04-23.434 11.848-6.871 23.519-14.045 35.359-20.929 8.023-4.665 16.258-8.964 24.303-13.594 15.522-8.933 30.965-18.004 46.46-26.984 16.948-9.821 34.146-19.236 50.78-29.561 8.193-5.086 16.762-9.001 25.922-11.192 5.64-1.348 11.865-.937 17.75-.426 11.243.975 20.606 6.79 30.053 12.472 11.09 6.67 22.59 12.651 33.78 19.16 10.997 6.396 21.773 13.17 32.744 19.61 11.175 6.561 22.463 12.928 33.71 19.363 12.208 6.983 24.482 13.85 36.626 20.94 23.152 13.517 46.196 27.22 69.354 40.727 19.459 11.349 39.038 22.49 58.523 33.793 17.328 10.052 34.533 20.318 51.92 30.266 11.643 6.662 23.599 12.777 35.24 19.443 5.72 3.277 10.91 7.47 16.575 10.853 7.394 4.414 15.089 8.32 22.535 12.649 19.5 11.334 38.87 22.89 58.421 34.135 10.928 6.285 22.268 11.859 33.145 18.228 15.025 8.8 29.826 17.987 44.619 27.176 1.892 1.175 3.16 3.356 4.988 5.264z"/><path fill="#0075FE" d="M596.487 401.594c.314-.224.628-.448 1.63-.627 3.264-1.297 5.839-2.639 8.414-3.98.775-.212 1.55-.423 3.01-.417 3.13-.488 5.575-1.195 8.021-1.901.48-.097.961-.193 2.142-.041 7.724 1.23 15.521.593 21.62 3.508 15.61 7.462 30.436 16.554 45.636 24.882 3.994 2.188 8.21 3.97 12.323 5.94.327.047.654.094 1.227.64 4.212 2.537 8.179 4.574 12.145 6.61.183.032.366.064.85.551 1.448 1.583 2.43 2.992 3.775 3.789 8.514 5.04 17.048 10.055 25.699 14.857 5.562 3.089 11.334 5.801 17.012 8.682 0 0 .382.03.688.435 3.94 2.415 7.575 4.425 11.21 6.436 0 0-.016.11.066.404 2.845 1.518 5.608 2.74 8.37 3.963 0 0 .195.019.309.435 2.54 1.729 4.965 3.042 7.39 4.355 0 0 .358.024.657.42 5.504 3.184 10.708 5.972 15.912 8.76 0 0 .025-.006.105.316.773.71 1.467 1.099 2.16 1.487 0 0-.1.038.007.322 3.148 1.727 6.189 3.169 9.23 4.61.37.122.74.243 1.358.867 4.301 2.751 8.355 5 12.41 7.249 0 0 .455.104.701.565 4.816 3.366 9.306 6.41 13.988 9.12 2.374 1.374 5.095 2.146 7.66 3.19 0 0 .25-.076.486.329 5.444 3.263 10.652 6.122 15.86 8.98 0 0 .048-.034.138.317 1.842 1.382 3.594 2.413 5.346 3.445.37.09.742.18 1.461.728 7.361 4.833 14.343 9.258 21.417 13.53 1.054.637 2.542.555 3.829.805 0 0-.104-.014-.003.325 2.005 1.18 3.908 2.02 5.812 2.86.302-.026.583.041 1.106.708 4.238 2.685 8.212 4.865 12.185 7.044 0 0-.09.037.016.324 4.063 2.397 8.02 4.507 11.977 6.617 0 0-.04.13.062.397 1.712 1.071 3.323 1.875 4.933 2.678 0 0 .464.094.738.543 1.148 1.161 1.947 2.001 2.908 2.564 7.506 4.396 14.987 8.838 22.596 13.047 2.963 1.64 6.236 2.717 9.367 4.05 0 0 .147-.022.256.355 1.025.807 1.94 1.236 2.856 1.665 0 0 .031-.027.032-.005 2.659 2.325 5.317 4.629 8.126 7.064-5.852 3.213-11.728 6.349-17.519 9.636-16.287 9.246-32.565 18.51-48.799 27.85-15.65 9.004-31.276 18.048-46.844 27.19-19.878 11.673-39.622 23.575-59.55 35.159-13.013 7.563-26.307 14.64-39.37 22.118-11.527 6.6-22.932 13.415-34.349 20.206-12.223 7.271-24.284 14.822-36.622 21.892-15.013 8.603-30.543 16.34-45.262 25.406-8.837 5.444-18.253 7.935-28.124 9.144-10.945 1.34-21.213-2.015-30.554-7.363-22.18-12.7-44.104-25.846-66.14-38.8-10.69-6.284-21.306-12.702-32.123-18.76-8.306-4.651-17.017-8.582-25.29-13.286-11.805-6.714-23.317-13.942-35.06-20.766-14.737-8.561-29.64-16.836-44.365-25.418-15.701-9.151-31.253-18.558-46.917-27.776-15.443-9.089-30.934-18.097-46.424-27.107-9.152-5.323-18.468-10.38-27.434-15.998-2.483-1.555-7.442 0-7.076-5.747.443-.586.645-.641 1.148-.726 1.064-.641 1.828-1.253 2.592-1.866 0 0 .01-.066.375-.056 1.43-.682 2.495-1.374 3.56-2.065 0 0 .027.027.397.017 3.124-1.757 5.877-3.503 8.63-5.249 0 0 .232-.123.618-.14.683-.345.98-.673 1.276-1.002.354-.307.708-.615 1.682-.879 1.878-.83 3.135-1.703 4.391-2.576 0 0 .315-.24.822-.262 1.097-.519 1.685-1.016 2.274-1.512.164-.079.329-.157 1.132-.274 4.042-2.257 7.445-4.475 10.849-6.694 0 0 .36-.33.962-.39 2.722-1.454 4.842-2.846 6.962-4.238 0 0 .2-.183.737-.078 3.784-2.057 7.03-4.22 10.276-6.382.335-.181.671-.363 1.682-.533 2.897-1.508 5.118-3.028 7.339-4.547.526-.347 1.052-.695 2.229-1.113 2.023-.969 3.396-1.866 4.768-2.762.29-.212.578-.424 1.518-.618 2.265-1.124 3.878-2.267 5.491-3.41 0 0 .342-.302.923-.345 1.737-.926 2.893-1.81 4.05-2.693.95-.537 1.9-1.074 3.573-1.582 4.97-2.72 9.215-5.47 13.462-8.22.38-.177.76-.355 1.827-.583 4.176-2.27 7.666-4.49 11.155-6.708.514-.343 1.028-.687 2.13-1.147.996-.5 1.402-.884 1.808-1.267.13-.318.355-.539 1.095-.8.651-.287.84-.478.987-.711.494-.369.987-.738 2.051-.945 4.014-1.966 7.458-4.094 10.902-6.223.644-.436 1.288-.872 2.517-1.349.91-.235 1.236-.43 1.562-.624 0 0 .033-.072.386-.078 1.095-.627 1.839-1.249 2.582-1.87.84-.669 1.68-1.338 3.203-2.075 2.727-1.301 4.772-2.534 6.816-3.767.187-.066.374-.132 1.196-.29 1.95-1.148 3.266-2.204 4.58-3.26 0 0 .164.103.462.06 8.167-4.238 16.052-8.405 23.876-12.681.78-.427 1.194-1.526 1.778-2.312 0 0 .015.094.267.048.759-.523 1.267-1 1.775-1.476 37.156-21.447 74.313-42.894 112.157-64.39 1.76-.934 2.83-1.82 3.9-2.707.29-.204.579-.409 1.525-.562 1.9-.8 3.144-1.65 4.388-2.501.546-.328 1.093-.656 2.296-1.107 3.06-1.63 5.464-3.137 7.868-4.644.155-.105.311-.21.917-.475.678-.295.874-.466 1.04-.674.455-.403.911-.807 1.93-1.146 2.723-1.337 4.884-2.739 7.045-4.14 0 0 .006-.07.2-.151.399-.22.552-.402.654-.627z"/><path fill="#2E94D9" d="M644.41 801.616c-1.21.828-2.773 1.66-4.713 2.441 1.2-.846 2.78-1.642 4.712-2.441zM631.441 805.138c-.634.26-1.511.42-2.626.412.636-.281 1.51-.397 2.626-.412z"/><path fill="#03C75B" d="M266.741 592.275c-.202.055-.404.11-.872.333-.266.168-.66-.116-.855-.258.17-.39.534-.636 1.226-.703.327.18.501.628.501.628zM262.88 593.527c.139-.322.566-.665 1.261-1.051-.145.315-.558.672-1.26 1.05z"/><path fill="#2E94D9" d="M646.487 800.67c.017.147-.197.325-.637.548-.027-.154.183-.341.637-.548z"/><path fill="#0167D7" d="M699.09 428.663c-3.92-1.674-8.136-3.457-12.13-5.645-15.2-8.328-30.027-17.42-45.636-24.882-6.099-2.915-13.896-2.278-21.253-3.465 8.287-2.423 16.96-.871 24.357 2.804 15.714 7.809 30.741 17.005 46.024 25.677 2.876 1.632 5.634 3.472 8.638 5.51zM759.832 463.786c-5.519-2.58-11.29-5.292-16.853-8.38-8.65-4.803-17.185-9.817-25.7-14.858-1.344-.797-2.326-2.206-3.534-3.649 15.27 8.651 30.6 17.618 46.087 26.887zM972.312 586.012c-2.997-1.033-6.27-2.11-9.233-3.75-7.61-4.21-15.09-8.651-22.596-13.047-.96-.563-1.76-1.403-2.717-2.425 8.61 4.374 17.323 9.017 25.98 13.764 2.886 1.583 5.626 3.43 8.566 5.458zM450.164 486.162c-.223.77-.636 1.869-1.417 2.296a903.642 903.642 0 0 1-23.955 12.636c8.085-4.974 16.548-9.944 25.372-14.932zM900.554 544.882c-1.092.023-2.58.105-3.634-.532-7.074-4.272-14.056-8.697-21.182-13.36 8.13 4.348 16.376 8.984 24.816 13.892zM851.995 516.744c-2.348-.767-5.07-1.539-7.443-2.913-4.682-2.71-9.172-5.754-13.804-8.976 6.97 3.66 14 7.635 21.247 11.889zM868.413 526.023a258.557 258.557 0 0 1-15.619-8.585c5.065 2.548 10.27 5.413 15.619 8.585zM804.415 489.008a295.998 295.998 0 0 1-15.588-8.368c5.034 2.5 10.222 5.29 15.588 8.368zM369.277 532.746a171.083 171.083 0 0 1-12.795 8.24c3.893-2.782 8.176-5.526 12.795-8.24zM829.715 503.84a136.405 136.405 0 0 1-12.031-6.76c3.95 1.938 7.917 4.195 12.031 6.76zM771.724 470.68a149.499 149.499 0 0 1-10.89-6.046c3.475 1.728 7.1 3.748 10.89 6.046zM931.704 562.733a138.27 138.27 0 0 1-11.853-6.364c3.825 1.799 7.77 3.932 11.853 6.364zM919.718 555.782a132.849 132.849 0 0 1-11.897-6.581c3.85 1.855 7.808 4.064 11.897 6.581zM712.46 435.938a141.437 141.437 0 0 1-11.76-6.17c3.817 1.746 7.692 3.822 11.76 6.17zM382.242 525.496c-3.137 2.208-6.627 4.427-10.487 6.675 3.132-2.202 6.634-4.433 10.487-6.675zM324.24 558.603a99.22 99.22 0 0 1-9.808 6.416c2.886-2.184 6.18-4.298 9.809-6.416zM401.222 514.427a115.734 115.734 0 0 1-10.236 6.193c3.131-2.157 6.511-4.158 10.236-6.193zM305.304 569.725a145.234 145.234 0 0 1-10.241 6.628c3.057-2.19 6.482-4.39 10.241-6.628zM282.23 583.077c-2.387 1.695-5.14 3.441-8.266 5.18 2.385-1.715 5.142-3.422 8.266-5.18zM584.357 408.771c-2.06 1.543-4.464 3.05-7.234 4.548 2.053-1.534 4.471-3.059 7.234-4.548zM815.924 495.725c-2.87-1.136-5.91-2.578-9.073-4.356 2.887 1.126 5.895 2.588 9.073 4.356zM617.182 394.568c-2.066.807-4.512 1.514-7.236 2.033 2.1-.837 4.477-1.486 7.236-2.033zM787.845 479.82a53.616 53.616 0 0 1-7.176-3.97c2.28 1.009 4.638 2.341 7.176 3.97zM606.205 396.908c-2.25 1.42-4.824 2.762-7.795 4.044 2.226-1.414 4.848-2.769 7.795-4.044zM780.164 475.047a59.768 59.768 0 0 1-8.234-3.734c2.62.922 5.346 2.189 8.234 3.734zM333.259 553.522c-1.882 1.516-4.103 3.036-6.71 4.529 1.866-1.527 4.118-3.027 6.71-4.53zM418.29 504.58c-1.701 1.282-3.746 2.515-6.15 3.768 1.696-1.26 3.752-2.54 6.15-3.769zM595.284 402.39c-1.812 1.383-3.973 2.785-6.387 4.072 1.844-1.427 3.94-2.74 6.387-4.071zM313.206 565.092c-1.762 1.359-3.882 2.75-6.373 4.126 1.758-1.376 3.886-2.734 6.373-4.126zM873.896 529.782c-1.606-.722-3.358-1.753-5.21-3.107 1.62.717 3.342 1.757 5.21 3.107zM906.38 548.055c-1.726-.555-3.629-1.395-5.583-2.59 1.767.533 3.586 1.418 5.582 2.59zM347.27 545.611c-1.279 1.148-2.892 2.29-4.886 3.395 1.264-1.159 2.907-2.28 4.885-3.395zM340.271 549.626c-1.048.914-2.42 1.811-4.129 2.73 1.045-.902 2.425-1.825 4.13-2.73zM936.709 565.797c-1.482-.492-3.093-1.296-4.813-2.434 1.488.484 3.086 1.303 4.813 2.434zM574.213 414.555c-.92.854-2.163 1.704-3.795 2.491.899-.874 2.185-1.684 3.795-2.49zM290.233 578.44c-.926.862-2.183 1.735-3.818 2.566.91-.88 2.198-1.718 3.818-2.566zM424.09 501.143c-.995.992-2.31 2.048-3.964 3.173.99-.99 2.317-2.05 3.964-3.173zM352.262 542.575c-.842.886-1.998 1.77-3.516 2.63.826-.892 2.014-1.763 3.516-2.63zM568.314 417.615c-.76.893-1.83 1.779-3.232 2.66.754-.891 1.838-1.78 3.232-2.66zM273.235 588.246c-.73.703-1.796 1.395-3.198 2.095.73-.697 1.796-1.402 3.198-2.095zM408.308 510.47c-.437.622-1.18 1.244-2.241 1.89.434-.615 1.184-1.254 2.24-1.89zM975.407 588.06c-.765-.157-1.68-.586-2.69-1.32.785.146 1.663.598 2.69 1.32zM806.753 490.813c-.588-.103-1.282-.492-2.056-1.189.596.095 1.273.5 2.056 1.189zM267.042 592.245c-.3.03-.475-.419-.574-.637.76-.555 1.62-.89 2.824-1.228-.422.612-1.186 1.224-2.25 1.865zM452.285 484.693c-.226.501-.734.978-1.527 1.467.225-.49.734-.99 1.527-1.467zM293.355 576.634c-.285.517-.873 1.014-1.774 1.508.282-.511.875-1.02 1.774-1.508zM386.248 523.125c-.122.33-.528.713-1.215 1.157.123-.327.527-.714 1.215-1.157zM586.445 407.677c.047.189-.149.36-.555.579-.117-.223.057-.437.555-.579zM596.298 401.633c.087.186-.066.368-.43.593-.14-.199-.008-.412.43-.593zM405.35 512.425c-.03.189-.356.383-.97.622.033-.176.353-.395.97-.622zM388.403 521.603c.064.19-.125.381-.539.62-.118-.214.053-.436.54-.62zM284.171 582c.023.213-.274.541-.885.996-.021-.209.272-.544.885-.995z"/></svg>