<svg width="24" height="25" viewBox="0 0 24 25" fill="none" xmlns="http://www.w3.org/2000/svg">
<g id="ri-contacts-book-2-fill" clip-path="url(#clip0_2_1651)">
<g id="Group">
<path id="Vector" d="M20 22.9595H6C5.20435 22.9595 4.44129 22.6434 3.87868 22.0808C3.31607 21.5182 3 20.7551 3 19.9595V5.95947C3 5.16382 3.31607 4.40076 3.87868 3.83815C4.44129 3.27554 5.20435 2.95947 6 2.95947H20C20.2652 2.95947 20.5196 3.06483 20.7071 3.25237C20.8946 3.4399 21 3.69426 21 3.95947V21.9595C21 22.2247 20.8946 22.479 20.7071 22.6666C20.5196 22.8541 20.2652 22.9595 20 22.9595ZM19 20.9595V18.9595H6C5.73478 18.9595 5.48043 19.0648 5.29289 19.2524C5.10536 19.4399 5 19.6943 5 19.9595C5 20.2247 5.10536 20.479 5.29289 20.6666C5.48043 20.8541 5.73478 20.9595 6 20.9595H19ZM12 10.9595C12.5304 10.9595 13.0391 10.7488 13.4142 10.3737C13.7893 9.99861 14 9.48991 14 8.95947C14 8.42904 13.7893 7.92033 13.4142 7.54526C13.0391 7.17019 12.5304 6.95947 12 6.95947C11.4696 6.95947 10.9609 7.17019 10.5858 7.54526C10.2107 7.92033 10 8.42904 10 8.95947C10 9.48991 10.2107 9.99861 10.5858 10.3737C10.9609 10.7488 11.4696 10.9595 12 10.9595ZM9 14.9595H15C15 14.1638 14.6839 13.4008 14.1213 12.8382C13.5587 12.2755 12.7956 11.9595 12 11.9595C11.2044 11.9595 10.4413 12.2755 9.87868 12.8382C9.31607 13.4008 9 14.1638 9 14.9595Z" fill="#001835"/>
</g>
</g>
<defs>
<clipPath id="clip0_2_1651">
<rect width="24" height="24" fill="white" transform="translate(0 0.959473)"/>
</clipPath>
</defs>
</svg>
