<svg width="24" height="25" viewBox="0 0 24 25" fill="none" xmlns="http://www.w3.org/2000/svg">
<g id="ri-group-2-fill" clip-path="url(#clip0_2_1645)">
<g id="Group">
<path id="Vector" d="M10 20.7075V17.3595C10 16.0765 10.995 15.0675 12.467 14.4915C11.5177 14.1384 10.5128 13.9582 9.5 13.9595C7.61 13.9595 5.864 14.5765 4.453 15.6195C4.89051 16.8568 5.62509 17.9678 6.59225 18.8549C7.55941 19.7421 8.72957 20.3782 10 20.7075ZM18.88 17.0455C18.485 16.5125 17.17 15.9595 15.5 15.9595C13.494 15.9595 12 16.7565 12 17.3595V20.9595C13.3878 20.9602 14.752 20.5998 15.9583 19.9135C17.1646 19.2273 18.1715 18.2388 18.88 17.0455ZM9.55 12.4595C10.1467 12.4595 10.719 12.2224 11.141 11.8005C11.5629 11.3785 11.8 10.8062 11.8 10.2095C11.8 9.61274 11.5629 9.04044 11.141 8.61848C10.719 8.19653 10.1467 7.95947 9.55 7.95947C8.95326 7.95947 8.38097 8.19653 7.95901 8.61848C7.53705 9.04044 7.3 9.61274 7.3 10.2095C7.3 10.8062 7.53705 11.3785 7.95901 11.8005C8.38097 12.2224 8.95326 12.4595 9.55 12.4595ZM15.5 13.4595C16.0304 13.4595 16.5391 13.2488 16.9142 12.8737C17.2893 12.4986 17.5 11.9899 17.5 11.4595C17.5 10.929 17.2893 10.4203 16.9142 10.0453C16.5391 9.67019 16.0304 9.45947 15.5 9.45947C14.9696 9.45947 14.4609 9.67019 14.0858 10.0453C13.7107 10.4203 13.5 10.929 13.5 11.4595C13.5 11.9899 13.7107 12.4986 14.0858 12.8737C14.4609 13.2488 14.9696 13.4595 15.5 13.4595ZM12 22.9595C6.477 22.9595 2 18.4825 2 12.9595C2 7.43647 6.477 2.95947 12 2.95947C17.523 2.95947 22 7.43647 22 12.9595C22 18.4825 17.523 22.9595 12 22.9595Z" fill="#001835"/>
</g>
</g>
<defs>
<clipPath id="clip0_2_1645">
<rect width="24" height="24" fill="white" transform="translate(0 0.959473)"/>
</clipPath>
</defs>
</svg>
