<svg width="24" height="25" viewBox="0 0 24 25" fill="none" xmlns="http://www.w3.org/2000/svg">
<g id="ri-home-gear-fill" clip-path="url(#clip0_2_1657)">
<g id="Group">
<path id="Vector" d="M20 20.9594C20 21.2246 19.8946 21.479 19.7071 21.6665C19.5196 21.854 19.2652 21.9594 19 21.9594H5C4.73478 21.9594 4.48043 21.854 4.29289 21.6665C4.10536 21.479 4 21.2246 4 20.9594V11.9594H1L11.327 2.57139C11.5111 2.40387 11.7511 2.31104 12 2.31104C12.2489 2.31104 12.4889 2.40387 12.673 2.57139L23 11.9594H20V20.9594ZM8.592 14.7674L7.601 15.3394L8.601 17.0724L9.594 16.4994C9.99236 16.876 10.4736 17.1538 10.999 17.3104V18.4554H13.001V17.3094C13.5263 17.1531 14.0075 16.8757 14.406 16.4994L15.398 17.0714L16.4 15.3394L15.409 14.7674C15.5355 14.2348 15.5355 13.68 15.409 13.1474L16.4 12.5744L15.4 10.8414L14.407 11.4144C14.008 11.0378 13.526 10.7604 13 10.6044V9.45939H10.998V10.6034C10.4726 10.76 9.99136 11.0378 9.593 11.4144L8.601 10.8414L7.6 12.5754L8.591 13.1474C8.46446 13.68 8.46446 14.2348 8.591 14.7674H8.592ZM12 15.4574C11.803 15.4575 11.6078 15.4188 11.4257 15.3436C11.2436 15.2683 11.0781 15.1579 10.9387 15.0186C10.7993 14.8794 10.6886 14.714 10.6131 14.532C10.5376 14.35 10.4986 14.1549 10.4985 13.9579C10.4984 13.7608 10.5371 13.5657 10.6123 13.3836C10.6876 13.2015 10.798 13.036 10.9373 12.8966C11.0765 12.7572 11.2419 12.6465 11.4239 12.571C11.6059 12.4955 11.801 12.4565 11.998 12.4564C12.3958 12.4561 12.7775 12.6139 13.059 12.895C13.3404 13.1761 13.4987 13.5576 13.499 13.9554C13.4993 14.3532 13.3415 14.7349 13.0604 15.0163C12.7793 15.2978 12.3978 15.4561 12 15.4564V15.4574Z" fill="#001835"/>
</g>
</g>
<defs>
<clipPath id="clip0_2_1657">
<rect width="24" height="24" fill="white" transform="translate(0 0.959473)"/>
</clipPath>
</defs>
</svg>
