<svg width="24" height="25" viewBox="0 0 24 25" fill="none" xmlns="http://www.w3.org/2000/svg">
<g id="ri-moon-clear-fill" clip-path="url(#clip0_2_1669)">
<g id="Group">
<path id="Vector" d="M9.822 2.69747C9.05219 4.36853 8.81303 6.23538 9.13672 8.04654C9.46041 9.85769 10.3314 11.5261 11.6324 12.8271C12.9333 14.1281 14.6018 14.9991 16.4129 15.3228C18.2241 15.6464 20.0909 15.4073 21.762 14.6375C20.768 19.1135 16.775 22.4595 12 22.4595C6.477 22.4595 2 17.9825 2 12.4595C2 7.68447 5.346 3.69147 9.822 2.69747ZM18.164 2.75047L19 2.95947V3.95947L18.164 4.16847C17.8124 4.25641 17.4913 4.43823 17.235 4.6945C16.9788 4.95078 16.7969 5.27187 16.709 5.62347L16.5 6.45947H15.5L15.291 5.62347C15.2031 5.27187 15.0212 4.95078 14.765 4.6945C14.5087 4.43823 14.1876 4.25641 13.836 4.16847L13 3.95947V2.95947L13.836 2.75047C14.1874 2.66238 14.5083 2.48049 14.7644 2.22422C15.0205 1.96796 15.2021 1.64695 15.29 1.29547L15.5 0.459473H16.5L16.709 1.29547C16.7969 1.64707 16.9788 1.96817 17.235 2.22444C17.4913 2.48072 17.8124 2.66254 18.164 2.75047ZM23.164 7.75047L24 7.95947V8.95947L23.164 9.16847C22.8124 9.2564 22.4913 9.43823 22.235 9.6945C21.9788 9.95078 21.7969 10.2719 21.709 10.6235L21.5 11.4595H20.5L20.291 10.6235C20.2031 10.2719 20.0212 9.95078 19.765 9.6945C19.5087 9.43823 19.1876 9.2564 18.836 9.16847L18 8.95947V7.95947L18.836 7.75047C19.1876 7.66254 19.5087 7.48072 19.765 7.22444C20.0212 6.96817 20.2031 6.64707 20.291 6.29547L20.5 5.45947H21.5L21.709 6.29547C21.7969 6.64707 21.9788 6.96817 22.235 7.22444C22.4913 7.48072 22.8124 7.66254 23.164 7.75047Z" fill="#001835"/>
</g>
</g>
<defs>
<clipPath id="clip0_2_1669">
<rect width="24" height="24" fill="white" transform="translate(0 0.459473)"/>
</clipPath>
</defs>
</svg>
