<svg width="24" height="25" viewBox="0 0 24 25" fill="none" xmlns="http://www.w3.org/2000/svg">
<g id="ri-message-3-fill" clip-path="url(#clip0_2_1638)">
<g id="Group">
<path id="Vector" d="M2 9.95348C1.99947 9.16569 2.15435 8.38552 2.45577 7.65767C2.75718 6.92981 3.19921 6.26856 3.75655 5.71178C4.31388 5.15501 4.97558 4.71364 5.70373 4.41295C6.43189 4.11226 7.21221 3.95817 8 3.95948H16C19.313 3.95948 22 6.65448 22 9.95348V21.9595H8C4.687 21.9595 2 19.2645 2 15.9655V9.95348ZM14 11.9595V13.9595H16V11.9595H14ZM8 11.9595V13.9595H10V11.9595H8Z" fill="white"/>
</g>
</g>
<defs>
<clipPath id="clip0_2_1638">
<rect width="24" height="24" fill="white" transform="translate(0 0.959473)"/>
</clipPath>
</defs>
</svg>
