<svg width="24" height="25" viewBox="0 0 24 25" fill="none" xmlns="http://www.w3.org/2000/svg">
<g id="ri-phone-fill" clip-path="url(#clip0_2_1663)">
<g id="Group">
<path id="Vector" d="M21 17.3795V20.9155C21.0001 21.1686 20.9042 21.4124 20.7316 21.5977C20.559 21.7829 20.3226 21.8958 20.07 21.9135C19.633 21.9435 19.276 21.9595 19 21.9595C10.163 21.9595 3 14.7965 3 5.95947C3 5.68347 3.015 5.32647 3.046 4.88947C3.06372 4.63692 3.17658 4.40048 3.3618 4.22788C3.54703 4.05528 3.79082 3.95936 4.044 3.95947H7.58C7.70404 3.95935 7.8237 4.00533 7.91573 4.08849C8.00776 4.17165 8.0656 4.28606 8.078 4.40947C8.101 4.63947 8.122 4.82247 8.142 4.96147C8.34073 6.3484 8.748 7.69731 9.35 8.96247C9.445 9.16247 9.383 9.40147 9.203 9.52947L7.045 11.0715C8.36445 14.1459 10.8145 16.596 13.889 17.9155L15.429 15.7615C15.4919 15.6735 15.5838 15.6104 15.6885 15.5831C15.7932 15.5559 15.9042 15.5663 16.002 15.6125C17.267 16.2133 18.6156 16.6196 20.002 16.8175C20.141 16.8375 20.324 16.8595 20.552 16.8815C20.6752 16.8941 20.7894 16.952 20.8724 17.0441C20.9553 17.1361 21.0012 17.2556 21.001 17.3795H21Z" fill="#001835"/>
</g>
</g>
<defs>
<clipPath id="clip0_2_1663">
<rect width="24" height="24" fill="white" transform="translate(0 0.959473)"/>
</clipPath>
</defs>
</svg>
